<?xml version="1.0" encoding="UTF-8" standalone="no"?>
<!DOCTYPE svg PUBLIC "-//W3C//DTD SVG 1.1//EN"
 "http://www.w3.org/Graphics/SVG/1.1/DTD/svg11.dtd">
<!-- Generated by graphviz version 2.42.3 (20191010.1750)
 -->
<!-- Title: snakemake_dag Pages: 1 -->
<svg width="278pt" height="836pt"
 viewBox="0.00 0.00 277.76 836.00" xmlns="http://www.w3.org/2000/svg" xmlns:xlink="http://www.w3.org/1999/xlink">
<g id="graph0" class="graph" transform="scale(1 1) rotate(0) translate(4 832)">
<title>snakemake_dag</title>
<polygon fill="white" stroke="transparent" points="-4,4 -4,-832 273.76,-832 273.76,4 -4,4"/>
<!-- 0 -->
<g id="node1" class="node">
<title>0</title>
<path fill="none" stroke="#567bd8" stroke-width="2" stroke-dasharray="5,2" d="M167.26,-36C167.26,-36 137.26,-36 137.26,-36 131.26,-36 125.26,-30 125.26,-24 125.26,-24 125.26,-12 125.26,-12 125.26,-6 131.26,0 137.26,0 137.26,0 167.26,0 167.26,0 173.26,0 179.26,-6 179.26,-12 179.26,-12 179.26,-24 179.26,-24 179.26,-30 173.26,-36 167.26,-36"/>
<text text-anchor="middle" x="152.26" y="-15.5" font-family="sans" font-size="10.00">all</text>
</g>
<!-- 1 -->
<g id="node2" class="node">
<title>1</title>
<path fill="none" stroke="#56d8c9" stroke-width="2" stroke-dasharray="5,2" d="M171.26,-108C171.26,-108 133.26,-108 133.26,-108 127.26,-108 121.26,-102 121.26,-96 121.26,-96 121.26,-84 121.26,-84 121.26,-78 127.26,-72 133.26,-72 133.26,-72 171.26,-72 171.26,-72 177.26,-72 183.26,-78 183.26,-84 183.26,-84 183.26,-96 183.26,-96 183.26,-102 177.26,-108 171.26,-108"/>
<text text-anchor="middle" x="152.26" y="-87.5" font-family="sans" font-size="10.00">bcf_norm</text>
</g>
<!-- 1&#45;&gt;0 -->
<g id="edge1" class="edge">
<title>1&#45;&gt;0</title>
<path fill="none" stroke="grey" stroke-width="2" d="M152.26,-71.7C152.26,-63.98 152.26,-54.71 152.26,-46.11"/>
<polygon fill="grey" stroke="grey" stroke-width="2" points="155.76,-46.1 152.26,-36.1 148.76,-46.1 155.76,-46.1"/>
</g>
<!-- 2 -->
<g id="node3" class="node">
<title>2</title>
<path fill="none" stroke="#56d8a2" stroke-width="2" stroke-dasharray="5,2" d="M167.26,-180C167.26,-180 137.26,-180 137.26,-180 131.26,-180 125.26,-174 125.26,-168 125.26,-168 125.26,-156 125.26,-156 125.26,-150 131.26,-144 137.26,-144 137.26,-144 167.26,-144 167.26,-144 173.26,-144 179.26,-150 179.26,-156 179.26,-156 179.26,-168 179.26,-168 179.26,-174 173.26,-180 167.26,-180"/>
<text text-anchor="middle" x="152.26" y="-159.5" font-family="sans" font-size="10.00">bcf_call</text>
</g>
<!-- 2&#45;&gt;1 -->
<g id="edge2" class="edge">
<title>2&#45;&gt;1</title>
<path fill="none" stroke="grey" stroke-width="2" d="M152.26,-143.7C152.26,-135.98 152.26,-126.71 152.26,-118.11"/>
<polygon fill="grey" stroke="grey" stroke-width="2" points="155.76,-118.1 152.26,-108.1 148.76,-118.1 155.76,-118.1"/>
</g>
<!-- 3 -->
<g id="node4" class="node">
<title>3</title>
<path fill="none" stroke="#56a2d8" stroke-width="2" stroke-dasharray="5,2" d="M178.76,-252C178.76,-252 125.76,-252 125.76,-252 119.76,-252 113.76,-246 113.76,-240 113.76,-240 113.76,-228 113.76,-228 113.76,-222 119.76,-216 125.76,-216 125.76,-216 178.76,-216 178.76,-216 184.76,-216 190.76,-222 190.76,-228 190.76,-228 190.76,-240 190.76,-240 190.76,-246 184.76,-252 178.76,-252"/>
<text text-anchor="middle" x="152.26" y="-231.5" font-family="sans" font-size="10.00">bcf_mpileup</text>
</g>
<!-- 3&#45;&gt;2 -->
<g id="edge3" class="edge">
<title>3&#45;&gt;2</title>
<path fill="none" stroke="grey" stroke-width="2" d="M152.26,-215.7C152.26,-207.98 152.26,-198.71 152.26,-190.11"/>
<polygon fill="grey" stroke="grey" stroke-width="2" points="155.76,-190.1 152.26,-180.1 148.76,-190.1 155.76,-190.1"/>
</g>
<!-- 4 -->
<g id="node5" class="node">
<title>4</title>
<path fill="none" stroke="#59d856" stroke-width="2" stroke-dasharray="5,2" d="M145.26,-324C145.26,-324 51.26,-324 51.26,-324 45.26,-324 39.26,-318 39.26,-312 39.26,-312 39.26,-300 39.26,-300 39.26,-294 45.26,-288 51.26,-288 51.26,-288 145.26,-288 145.26,-288 151.26,-288 157.26,-294 157.26,-300 157.26,-300 157.26,-312 157.26,-312 157.26,-318 151.26,-324 145.26,-324"/>
<text text-anchor="middle" x="98.26" y="-303.5" font-family="sans" font-size="10.00">GATK_IndelRealigner</text>
</g>
<!-- 4&#45;&gt;3 -->
<g id="edge4" class="edge">
<title>4&#45;&gt;3</title>
<path fill="none" stroke="grey" stroke-width="2" d="M111.6,-287.7C118.01,-279.39 125.81,-269.28 132.86,-260.14"/>
<polygon fill="grey" stroke="grey" stroke-width="2" points="135.72,-262.16 139.06,-252.1 130.18,-257.88 135.72,-262.16"/>
</g>
<!-- 5 -->
<g id="node6" class="node">
<title>5</title>
<path fill="none" stroke="#d8a456" stroke-width="2" stroke-dasharray="5,2" d="M98.76,-540C98.76,-540 21.76,-540 21.76,-540 15.76,-540 9.76,-534 9.76,-528 9.76,-528 9.76,-516 9.76,-516 9.76,-510 15.76,-504 21.76,-504 21.76,-504 98.76,-504 98.76,-504 104.76,-504 110.76,-510 110.76,-516 110.76,-516 110.76,-528 110.76,-528 110.76,-534 104.76,-540 98.76,-540"/>
<text text-anchor="middle" x="60.26" y="-519.5" font-family="sans" font-size="10.00">samtools_sorting</text>
</g>
<!-- 5&#45;&gt;4 -->
<g id="edge6" class="edge">
<title>5&#45;&gt;4</title>
<path fill="none" stroke="grey" stroke-width="2" d="M45.98,-503.59C22.72,-472.97 -18.13,-408.18 9.26,-360 16.62,-347.04 28.54,-336.92 41.3,-329.16"/>
<polygon fill="grey" stroke="grey" stroke-width="2" points="43.22,-332.1 50.22,-324.15 39.79,-325.99 43.22,-332.1"/>
</g>
<!-- 10 -->
<g id="node11" class="node">
<title>10</title>
<path fill="none" stroke="#78d856" stroke-width="2" stroke-dasharray="5,2" d="M166.26,-396C166.26,-396 30.26,-396 30.26,-396 24.26,-396 18.26,-390 18.26,-384 18.26,-384 18.26,-372 18.26,-372 18.26,-366 24.26,-360 30.26,-360 30.26,-360 166.26,-360 166.26,-360 172.26,-360 178.26,-366 178.26,-372 178.26,-372 178.26,-384 178.26,-384 178.26,-390 172.26,-396 166.26,-396"/>
<text text-anchor="middle" x="98.26" y="-375.5" font-family="sans" font-size="10.00">GATK_RealignerTargetCreator</text>
</g>
<!-- 5&#45;&gt;10 -->
<g id="edge13" class="edge">
<title>5&#45;&gt;10</title>
<path fill="none" stroke="grey" stroke-width="2" d="M50.99,-503.98C42.3,-485.59 32.03,-455.75 42.26,-432 47.05,-420.87 55.45,-410.99 64.31,-402.86"/>
<polygon fill="grey" stroke="grey" stroke-width="2" points="66.8,-405.34 72.13,-396.18 62.25,-400.01 66.8,-405.34"/>
</g>
<!-- 11 -->
<g id="node12" class="node">
<title>11</title>
<path fill="none" stroke="#56d87b" stroke-width="2" stroke-dasharray="5,2" d="M171.26,-468C171.26,-468 63.26,-468 63.26,-468 57.26,-468 51.26,-462 51.26,-456 51.26,-456 51.26,-444 51.26,-444 51.26,-438 57.26,-432 63.26,-432 63.26,-432 171.26,-432 171.26,-432 177.26,-432 183.26,-438 183.26,-444 183.26,-444 183.26,-456 183.26,-456 183.26,-462 177.26,-468 171.26,-468"/>
<text text-anchor="middle" x="117.26" y="-447.5" font-family="sans" font-size="10.00">samtools_indexing_one</text>
</g>
<!-- 5&#45;&gt;11 -->
<g id="edge15" class="edge">
<title>5&#45;&gt;11</title>
<path fill="none" stroke="grey" stroke-width="2" d="M74.35,-503.7C81.18,-495.3 89.51,-485.07 97.01,-475.86"/>
<polygon fill="grey" stroke="grey" stroke-width="2" points="99.73,-478.07 103.33,-468.1 94.3,-473.65 99.73,-478.07"/>
</g>
<!-- 6 -->
<g id="node7" class="node">
<title>6</title>
<path fill="none" stroke="#d87d56" stroke-width="2" stroke-dasharray="5,2" d="M151.76,-612C151.76,-612 70.76,-612 70.76,-612 64.76,-612 58.76,-606 58.76,-600 58.76,-600 58.76,-588 58.76,-588 58.76,-582 64.76,-576 70.76,-576 70.76,-576 151.76,-576 151.76,-576 157.76,-576 163.76,-582 163.76,-588 163.76,-588 163.76,-600 163.76,-600 163.76,-606 157.76,-612 151.76,-612"/>
<text text-anchor="middle" x="111.26" y="-591.5" font-family="sans" font-size="10.00">samtools_fixmate</text>
</g>
<!-- 6&#45;&gt;5 -->
<g id="edge8" class="edge">
<title>6&#45;&gt;5</title>
<path fill="none" stroke="grey" stroke-width="2" d="M98.65,-575.7C92.66,-567.47 85.38,-557.48 78.78,-548.42"/>
<polygon fill="grey" stroke="grey" stroke-width="2" points="81.44,-546.13 72.72,-540.1 75.78,-550.25 81.44,-546.13"/>
</g>
<!-- 12 -->
<g id="node13" class="node">
<title>12</title>
<path fill="none" stroke="#c6d856" stroke-width="2" stroke-dasharray="5,2" d="M225.26,-540C225.26,-540 159.26,-540 159.26,-540 153.26,-540 147.26,-534 147.26,-528 147.26,-528 147.26,-516 147.26,-516 147.26,-510 153.26,-504 159.26,-504 159.26,-504 225.26,-504 225.26,-504 231.26,-504 237.26,-510 237.26,-516 237.26,-516 237.26,-528 237.26,-528 237.26,-534 231.26,-540 225.26,-540"/>
<text text-anchor="middle" x="192.26" y="-519.5" font-family="sans" font-size="10.00">sam_compress</text>
</g>
<!-- 6&#45;&gt;12 -->
<g id="edge16" class="edge">
<title>6&#45;&gt;12</title>
<path fill="none" stroke="grey" stroke-width="2" d="M131.28,-575.7C141.38,-566.97 153.79,-556.24 164.77,-546.75"/>
<polygon fill="grey" stroke="grey" stroke-width="2" points="167.19,-549.29 172.46,-540.1 162.61,-543.99 167.19,-549.29"/>
</g>
<!-- 7 -->
<g id="node8" class="node">
<title>7</title>
<path fill="none" stroke="#d8c356" stroke-width="2" stroke-dasharray="5,2" d="M257.76,-684C257.76,-684 44.76,-684 44.76,-684 38.76,-684 32.76,-678 32.76,-672 32.76,-672 32.76,-660 32.76,-660 32.76,-654 38.76,-648 44.76,-648 44.76,-648 257.76,-648 257.76,-648 263.76,-648 269.76,-654 269.76,-660 269.76,-660 269.76,-672 269.76,-672 269.76,-678 263.76,-684 257.76,-684"/>
<text text-anchor="middle" x="151.26" y="-669" font-family="sans" font-size="10.00">bwa_align</text>
<text text-anchor="middle" x="151.26" y="-658" font-family="sans" font-size="10.00">genome: S_lycopersicum_chromosomes.4.00</text>
</g>
<!-- 7&#45;&gt;6 -->
<g id="edge9" class="edge">
<title>7&#45;&gt;6</title>
<path fill="none" stroke="grey" stroke-width="2" d="M141.37,-647.7C136.77,-639.64 131.2,-629.89 126.1,-620.98"/>
<polygon fill="grey" stroke="grey" stroke-width="2" points="129.03,-619.05 121.03,-612.1 122.95,-622.52 129.03,-619.05"/>
</g>
<!-- 7&#45;&gt;12 -->
<g id="edge17" class="edge">
<title>7&#45;&gt;12</title>
<path fill="none" stroke="grey" stroke-width="2" d="M158.96,-647.58C163.27,-637.36 168.52,-624.11 172.26,-612 178.55,-591.6 183.76,-568.01 187.28,-550.24"/>
<polygon fill="grey" stroke="grey" stroke-width="2" points="190.75,-550.75 189.2,-540.27 183.87,-549.43 190.75,-550.75"/>
</g>
<!-- 8 -->
<g id="node9" class="node">
<title>8</title>
<path fill="none" stroke="#9fd856" stroke-width="2" stroke-dasharray="5,2" d="M193.76,-828C193.76,-828 108.76,-828 108.76,-828 102.76,-828 96.76,-822 96.76,-816 96.76,-816 96.76,-804 96.76,-804 96.76,-798 102.76,-792 108.76,-792 108.76,-792 193.76,-792 193.76,-792 199.76,-792 205.76,-798 205.76,-804 205.76,-804 205.76,-816 205.76,-816 205.76,-822 199.76,-828 193.76,-828"/>
<text text-anchor="middle" x="151.26" y="-813" font-family="sans" font-size="10.00">trimmomatic</text>
<text text-anchor="middle" x="151.26" y="-802" font-family="sans" font-size="10.00">sample: ERR4102X</text>
</g>
<!-- 8&#45;&gt;7 -->
<g id="edge10" class="edge">
<title>8&#45;&gt;7</title>
<path fill="none" stroke="grey" stroke-width="2" d="M148.01,-791.89C146.21,-781.54 144.16,-768.06 143.26,-756 142.06,-740.04 142.06,-735.96 143.26,-720 143.89,-711.52 145.09,-702.34 146.38,-694.04"/>
<polygon fill="grey" stroke="grey" stroke-width="2" points="149.84,-694.55 148.01,-684.11 142.93,-693.41 149.84,-694.55"/>
</g>
<!-- 9 -->
<g id="node10" class="node">
<title>9</title>
<path fill="none" stroke="#d85656" stroke-width="2" stroke-dasharray="5,2" d="M194.26,-756C194.26,-756 164.26,-756 164.26,-756 158.26,-756 152.26,-750 152.26,-744 152.26,-744 152.26,-732 152.26,-732 152.26,-726 158.26,-720 164.26,-720 164.26,-720 194.26,-720 194.26,-720 200.26,-720 206.26,-726 206.26,-732 206.26,-732 206.26,-744 206.26,-744 206.26,-750 200.26,-756 194.26,-756"/>
<text text-anchor="middle" x="179.26" y="-735.5" font-family="sans" font-size="10.00">fastQC</text>
</g>
<!-- 8&#45;&gt;9 -->
<g id="edge12" class="edge">
<title>8&#45;&gt;9</title>
<path fill="none" stroke="grey" stroke-width="2" d="M158.18,-791.7C161.33,-783.81 165.13,-774.3 168.64,-765.55"/>
<polygon fill="grey" stroke="grey" stroke-width="2" points="171.95,-766.69 172.41,-756.1 165.45,-764.09 171.95,-766.69"/>
</g>
<!-- 9&#45;&gt;7 -->
<g id="edge11" class="edge">
<title>9&#45;&gt;7</title>
<path fill="none" stroke="grey" stroke-width="2" d="M172.33,-719.7C169.18,-711.81 165.38,-702.3 161.87,-693.55"/>
<polygon fill="grey" stroke="grey" stroke-width="2" points="165.06,-692.09 158.1,-684.1 158.56,-694.69 165.06,-692.09"/>
</g>
<!-- 10&#45;&gt;4 -->
<g id="edge7" class="edge">
<title>10&#45;&gt;4</title>
<path fill="none" stroke="grey" stroke-width="2" d="M98.26,-359.7C98.26,-351.98 98.26,-342.71 98.26,-334.11"/>
<polygon fill="grey" stroke="grey" stroke-width="2" points="101.76,-334.1 98.26,-324.1 94.76,-334.1 101.76,-334.1"/>
</g>
<!-- 11&#45;&gt;10 -->
<g id="edge14" class="edge">
<title>11&#45;&gt;10</title>
<path fill="none" stroke="grey" stroke-width="2" d="M112.56,-431.7C110.44,-423.9 107.89,-414.51 105.54,-405.83"/>
<polygon fill="grey" stroke="grey" stroke-width="2" points="108.9,-404.84 102.9,-396.1 102.14,-406.67 108.9,-404.84"/>
</g>
<!-- 12&#45;&gt;3 -->
<g id="edge5" class="edge">
<title>12&#45;&gt;3</title>
<path fill="none" stroke="grey" stroke-width="2" d="M192.61,-503.93C192.89,-486.01 193.12,-457.02 192.26,-432 191.14,-399.94 192.72,-391.61 187.26,-360 181.28,-325.45 169.65,-286.73 161.43,-261.67"/>
<polygon fill="grey" stroke="grey" stroke-width="2" points="164.74,-260.52 158.26,-252.14 158.1,-262.73 164.74,-260.52"/>
</g>
</g>
</svg>
